<svg width="50" height="50" viewBox="0 0 50 50" fill="none" xmlns="http://www.w3.org/2000/svg">
<path fill-rule="evenodd" clip-rule="evenodd" d="M31.538 19.662C31.538 19.8196 31.507 19.9756 31.4467 20.1212C31.3863 20.2668 31.298 20.3991 31.1865 20.5105C31.0751 20.622 30.9428 20.7103 30.7972 20.7707C30.6516 20.831 30.4956 20.862 30.338 20.862C30.1804 20.862 30.0244 20.831 29.8788 20.7707C29.7332 20.7103 29.6009 20.622 29.4895 20.5105C29.378 20.3991 29.2897 20.2668 29.2293 20.1212C29.169 19.9756 29.138 19.8196 29.138 19.662C29.138 19.3437 29.2644 19.0385 29.4895 18.8135C29.7145 18.5884 30.0197 18.462 30.338 18.462C30.6563 18.462 30.9615 18.5884 31.1865 18.8135C31.4116 19.0385 31.538 19.3437 31.538 19.662ZM25 28.333C24.116 28.333 23.2683 27.9818 22.6432 27.3568C22.0182 26.7317 21.667 25.884 21.667 25C21.667 24.116 22.0182 23.2683 22.6432 22.6432C23.2683 22.0182 24.116 21.667 25 21.667C25.884 21.667 26.7317 22.0182 27.3568 22.6432C27.9818 23.2683 28.333 24.116 28.333 25C28.333 25.884 27.9818 26.7317 27.3568 27.3568C26.7317 27.9818 25.884 28.333 25 28.333ZM25 19.865C23.6381 19.865 22.332 20.406 21.369 21.369C20.406 22.332 19.865 23.6381 19.865 25C19.865 26.3619 20.406 27.668 21.369 28.631C22.332 29.594 23.6381 30.135 25 30.135C26.3619 30.135 27.668 29.594 28.631 28.631C29.594 27.668 30.135 26.3619 30.135 25C30.135 23.6381 29.594 22.332 28.631 21.369C27.668 20.406 26.3619 19.865 25 19.865ZM25 16.802C27.67 16.802 27.986 16.812 29.04 16.86C30.016 16.905 30.545 17.067 30.898 17.205C31.364 17.385 31.698 17.603 32.048 17.953C32.398 18.303 32.614 18.636 32.796 19.103C32.932 19.455 33.096 19.984 33.14 20.959C33.188 22.014 33.198 22.33 33.198 25C33.198 27.67 33.188 27.987 33.14 29.041C33.096 30.016 32.933 30.546 32.796 30.898C32.614 31.365 32.398 31.698 32.048 32.048C31.698 32.398 31.364 32.614 30.898 32.796C30.545 32.933 30.016 33.096 29.041 33.14C27.986 33.188 27.671 33.199 25 33.199C22.33 33.199 22.013 33.189 20.96 33.14C19.984 33.096 19.454 32.933 19.102 32.796C18.6676 32.6357 18.2746 32.3801 17.952 32.048C17.6199 31.7254 17.3643 31.3324 17.204 30.898C17.067 30.546 16.904 30.016 16.86 29.041C16.812 27.987 16.802 27.671 16.802 25.001C16.802 22.331 16.812 22.014 16.86 20.959C16.904 19.984 17.067 19.455 17.204 19.102C17.386 18.636 17.602 18.302 17.952 17.952C18.302 17.602 18.635 17.386 19.102 17.204C19.454 17.068 19.984 16.904 20.959 16.86C22.014 16.812 22.329 16.802 25 16.802ZM25 15C22.284 15 21.944 15.012 20.877 15.06C19.813 15.109 19.086 15.278 18.45 15.525C17.7825 15.7758 17.1778 16.1693 16.678 16.678C16.1693 17.1778 15.7758 17.7825 15.525 18.45C15.278 19.086 15.109 19.813 15.06 20.877C15.012 21.944 15 22.284 15 25C15 27.716 15.012 28.056 15.06 29.123C15.109 30.187 15.278 30.914 15.525 31.55C15.7758 32.2175 16.1693 32.8222 16.678 33.322C17.1778 33.8306 17.7825 34.2241 18.45 34.475C19.086 34.722 19.813 34.891 20.877 34.94C21.944 34.988 22.284 35 25 35C27.716 35 28.056 34.988 29.123 34.94C30.187 34.891 30.914 34.722 31.55 34.475C32.2175 34.2241 32.8222 33.8306 33.322 33.322C33.8306 32.8222 34.2241 32.2175 34.475 31.55C34.722 30.914 34.891 30.187 34.94 29.123C34.988 28.056 35 27.716 35 25C35 22.284 34.988 21.944 34.94 20.877C34.891 19.813 34.722 19.086 34.475 18.45C34.2241 17.7825 33.8306 17.1778 33.322 16.678C32.8222 16.1694 32.2175 15.7759 31.55 15.525C30.914 15.278 30.187 15.109 29.123 15.06C28.056 15.012 27.716 15 25 15Z" fill="#4E4E4E"/>
<rect x="0.5" y="0.5" width="49" height="49" rx="24.5" stroke="#4E4E4E"/>
</svg>
