<svg width="50" height="50" viewBox="0 0 50 50" fill="none" xmlns="http://www.w3.org/2000/svg">
<mask id="mask0_42_48" style="mask-type:luminance" maskUnits="userSpaceOnUse" x="14" y="15" width="20" height="20">
<path d="M14 15H34V35H14V15Z" fill="white"/>
</mask>
<g mask="url(#mask0_42_48)">
<path fill-rule="evenodd" clip-rule="evenodd" d="M15.369 23.893C20.734 21.563 24.306 20.014 26.099 19.263C31.204 17.133 32.277 16.764 32.967 16.749C33.121 16.749 33.457 16.779 33.687 16.964C33.872 17.117 33.917 17.316 33.948 17.47C33.979 17.623 34.01 17.945 33.979 18.19C33.703 21.103 32.507 28.17 31.894 31.42C31.634 32.8 31.128 33.259 30.637 33.305C29.564 33.397 28.752 32.6 27.724 31.925C26.099 30.868 25.195 30.208 23.616 29.166C21.792 27.97 22.972 27.311 24.015 26.238C24.291 25.962 28.997 21.67 29.089 21.287C29.104 21.241 29.104 21.057 28.997 20.965C28.89 20.873 28.737 20.903 28.614 20.934C28.445 20.964 25.87 22.682 20.857 26.069C20.121 26.575 19.462 26.821 18.864 26.805C18.204 26.79 16.948 26.437 15.997 26.131C14.847 25.763 13.927 25.564 14.005 24.92C14.05 24.582 14.51 24.245 15.369 23.893Z" fill="#4E4E4E"/>
</g>
<rect x="0.5" y="0.5" width="49" height="49" rx="24.5" stroke="#4E4E4E"/>
</svg>
