<svg width="50" height="50" viewBox="0 0 50 50" fill="none" xmlns="http://www.w3.org/2000/svg">
<path fill-rule="evenodd" clip-rule="evenodd" d="M32.086 17.907C31.1615 16.982 30.0632 16.2489 28.8543 15.75C27.6454 15.2511 26.3498 14.9962 25.042 15C19.553 15 15.086 19.446 15.083 24.91C15.083 26.657 15.541 28.361 16.413 29.864L15 35L20.279 33.622C21.7403 34.4138 23.376 34.8283 25.038 34.828H25.042C30.53 34.828 34.998 30.382 35 24.918C35.0035 23.6146 34.7477 22.3234 34.2474 21.1198C33.7472 19.9161 33.0124 18.824 32.086 17.907ZM25.042 33.154H25.038C23.5567 33.1543 22.1023 32.7579 20.826 32.006L20.524 31.828L17.391 32.645L18.227 29.605L18.03 29.295C17.2013 27.9828 16.7626 26.4621 16.765 24.91C16.767 20.369 20.48 16.674 25.045 16.674C26.1315 16.671 27.208 16.8829 28.2123 17.2976C29.2166 17.7122 30.129 18.3214 30.897 19.09C31.667 19.8522 32.2776 20.7598 32.6934 21.7602C33.1092 22.7606 33.3219 23.8337 33.319 24.917C33.317 29.459 29.604 33.154 25.042 33.154Z" fill="#4E4E4E"/>
<path fill-rule="evenodd" clip-rule="evenodd" d="M29.582 26.9851C29.334 26.8611 28.11 26.2621 27.882 26.1791C27.654 26.0971 27.488 26.0551 27.322 26.3031C27.157 26.5511 26.68 27.1091 26.535 27.2741C26.389 27.4391 26.245 27.4601 25.995 27.3361C25.747 27.2121 24.945 26.9511 23.995 26.1071C23.255 25.4501 22.755 24.6401 22.61 24.3921C22.465 24.1441 22.595 24.0101 22.72 23.8861C22.831 23.7761 22.968 23.5971 23.093 23.4521C23.217 23.3081 23.259 23.2041 23.341 23.0391C23.424 22.8741 23.383 22.7291 23.321 22.6051C23.258 22.4821 22.761 21.2631 22.554 20.7671C22.352 20.2841 22.146 20.3491 21.994 20.3421C21.8351 20.3353 21.6761 20.3323 21.517 20.3331C21.3909 20.3363 21.2669 20.3655 21.1527 20.4188C21.0384 20.4722 20.9364 20.5485 20.853 20.6431C20.625 20.8911 19.983 21.4901 19.983 22.7091C19.983 23.9281 20.874 25.1051 20.998 25.2701C21.123 25.4361 22.753 27.9371 25.249 29.0101C25.7125 29.2087 26.1862 29.3826 26.668 29.5311C27.264 29.7201 27.806 29.6931 28.235 29.6291C28.713 29.5591 29.707 29.0301 29.915 28.4521C30.122 27.8731 30.122 27.3771 30.059 27.2741C29.997 27.1711 29.831 27.1091 29.582 26.9841V26.9851Z" fill="#4E4E4E"/>
<rect x="0.5" y="0.5" width="49" height="49" rx="24.5" stroke="#4E4E4E"/>
</svg>
